HIERARCHY
ROOT Hips
{
    OFFSET 0.000000 0.000000 0.000000
    CHANNELS 6 Xposition Yposition Zposition Zrotation Xrotation Yrotation
    JOINT Spine
    {
        OFFSET -0.000000 14.517291 0.000000
        CHANNELS 3 Zrotation Xrotation Yrotation
        JOINT Spine1
        {
            OFFSET -0.000000 37.558300 0.000000
            CHANNELS 3 Zrotation Xrotation Yrotation
            JOINT Neck
            {
                OFFSET -0.000000 37.404057 3.400369
                CHANNELS 3 Zrotation Xrotation Yrotation
                JOINT Head
                {
                    OFFSET -0.000000 24.785618 -3.540803
                    CHANNELS 3 Zrotation Xrotation Yrotation
                    End Site
                    {
                        OFFSET -0.000000 35.408028 0.000000
                    }
                }
            }
            JOINT LeftShoulder
            {
                OFFSET 6.992933 33.973492 -0.192664
                CHANNELS 3 Zrotation Xrotation Yrotation
                JOINT LeftArm
                {
                    OFFSET 21.527611 0.000000 0.000000
                    CHANNELS 3 Zrotation Xrotation Yrotation
                    JOINT LeftForeArm
                    {
                        OFFSET 56.353916 0.000000 0.000000
                        CHANNELS 3 Zrotation Xrotation Yrotation
                        JOINT LeftHand
                        {
                            OFFSET 47.774071 0.000000 0.000000
                            CHANNELS 3 Zrotation Xrotation Yrotation
                            End Site
                            {
                                OFFSET 26.556021 0.000000 0.000000
                            }
                        }
                    }
                }
            }
            JOINT RightShoulder
            {
                OFFSET -7.065357 33.973492 -0.192664
                CHANNELS 3 Zrotation Xrotation Yrotation
                JOINT RightArm
                {
                    OFFSET -21.527611 0.000000 0.000000
                    CHANNELS 3 Zrotation Xrotation Yrotation
                    JOINT RightForeArm
                    {
                        OFFSET -56.353916 0.000000 0.000000
                        CHANNELS 3 Zrotation Xrotation Yrotation
                        JOINT RightHand
                        {
                            OFFSET -47.774071 0.000000 0.000000
                            CHANNELS 3 Zrotation Xrotation Yrotation
                            End Site
                            {
                                OFFSET -26.556021 0.000000 0.000000
                            }
                        }
                    }
                }
            }
        }
    }
    JOINT LeftUpLeg
    {
        OFFSET 17.704014 0.000000 0.000000
        CHANNELS 3 Zrotation Xrotation Yrotation
        JOINT LeftLeg
        {
            OFFSET -0.000000 -81.181816 0.000000
            CHANNELS 3 Zrotation Xrotation Yrotation
            JOINT LeftFoot
            {
                OFFSET -0.000000 -62.821102 0.000000
                CHANNELS 3 Zrotation Xrotation Yrotation
                JOINT LeftToeBase
                {
                    OFFSET -0.000000 -11.507608 26.556021
                    CHANNELS 3 Zrotation Xrotation Yrotation
                    End Site
                    {
                        OFFSET -0.000000 0.000000 7.081605
                    }
                }
            }
        }
    }
    JOINT RightUpLeg
    {
        OFFSET -17.704014 0.000000 0.000000
        CHANNELS 3 Zrotation Xrotation Yrotation
        JOINT RightLeg
        {
            OFFSET -0.000000 -81.181816 0.000000
            CHANNELS 3 Zrotation Xrotation Yrotation
            JOINT RightFoot
            {
                OFFSET -0.000000 -62.821102 0.000000
                CHANNELS 3 Zrotation Xrotation Yrotation
                JOINT RightToeBase
                {
                    OFFSET -0.000000 -11.507608 26.556021
                    CHANNELS 3 Zrotation Xrotation Yrotation
                    End Site
                    {
                        OFFSET -0.000000 0.000000 7.081605
                    }
                }
            }
        }
    }
}
MOTION
Frames:    12
Frame Time:    0.008333
17.933897    154.838577    -43.384899    -0.461554    -0.255160    -54.763615    1.885747    0.121728    -0.809600    -0.069668    2.549428    -0.269043    16.275309    -1.190350    14.451640    -9.889291    9.194215    11.840356    12.087914    -0.550298    -18.991598    -10.450109    -17.681210    -40.424515    7.467554    -38.634647    -27.844915    -25.192989    -27.865396    -46.587963    -8.297098    3.290862    -1.710876    35.091980    7.024458    77.921143    7.156578    -2.774676    106.284767    3.687122    -11.601872    20.695019    22.259634    -19.731932    -1.388787    -10.921581    24.955723    -15.047078    1.776917    -12.980836    35.674191    0.000000    0.000000    0.000000    -11.463209    -11.085179    -0.547466    7.855217    39.176041    -1.992157    1.444058    -23.328087    -11.322187    0.000000    0.000000    0.000000    
17.917982    154.835617    -43.365078    -0.435488    -0.275650    -54.670135    1.844145    0.076653    -0.876362    -0.061012    2.551727    -0.291534    16.247738    -1.177203    14.437508    -9.885925    9.200434    11.832738    12.069703    -0.550425    -19.003199    -10.454041    -17.680544    -40.438148    7.512827    -38.660343    -27.818480    -25.189800    -27.890640    -46.574112    -8.317833    3.285328    -1.730128    35.078880    7.005620    77.903160    7.132383    -2.796214    106.299690    3.666235    -11.597468    20.690536    22.428772    -19.601566    -0.430725    -11.034571    24.786415    -14.583036    1.855648    -12.816390    35.915562    0.000000    0.000000    0.000000    -11.511516    -11.056012    -0.612919    7.875400    39.178894    -2.004815    1.415573    -23.360849    -11.355168    0.000000    0.000000    0.000000    
17.905096    154.835648    -43.337841    -0.413410    -0.298606    -54.567207    1.808943    0.043374    -0.943427    -0.058734    2.546331    -0.314265    16.262138    -1.156978    14.423977    -9.943738    9.204062    11.816032    12.063484    -0.549181    -19.018637    -10.482948    -17.704317    -40.457211    7.519918    -38.668003    -27.818470    -25.194931    -27.893847    -46.581974    -8.323584    3.281085    -1.761581    35.073708    6.986904    77.882797    7.128480    -2.797711    106.306717    3.675154    -11.593175    20.688423    22.609203    -19.478348    0.378173    -11.278536    24.603619    -13.863542    1.969159    -12.623853    36.066807    0.000000    0.000000    0.000000    -11.553732    -11.019400    -0.703820    7.848714    39.187126    -1.965636    1.413761    -23.397976    -11.391644    0.000000    0.000000    0.000000    
17.892786    154.832397    -43.302849    -0.393518    -0.318886    -54.454563    1.775290    0.008758    -1.013660    -0.047939    2.537724    -0.338008    16.256838    -1.149634    14.410750    -9.969220    9.228566    11.804756    12.052315    -0.540898    -19.040028    -10.502239    -17.704559    -40.479603    7.547936    -38.690887    -27.811399    -25.196054    -27.918524    -46.560940    -8.331212    3.273036    -1.784913    35.064510    6.968744    77.848572    7.126967    -2.787737    106.316170    3.648923    -11.587705    20.688450    22.789301    -19.349375    1.168550    -11.514681    24.404968    -13.191880    2.069720    -12.393314    36.206879    0.000000    0.000000    0.000000    -11.598657    -10.973169    -0.772470    7.858400    39.179249    -1.993192    1.400997    -23.430176    -11.424203    0.000000    0.000000    0.000000    
17.885187    154.828934    -43.263550    -0.375041    -0.338224    -54.348255    1.751148    -0.021760    -1.070587    -0.043392    2.526332    -0.357283    16.242083    -1.147547    14.387194    -9.988915    9.262257    11.784632    12.044426    -0.530807    -19.072964    -10.517728    -17.703218    -40.495945    7.571269    -38.701885    -27.804800    -25.195660    -27.927799    -46.555359    -8.339665    3.276203    -1.829743    35.072430    6.942764    77.823708    7.161555    -2.743912    106.320717    3.660391    -11.588853    20.697893    22.934526    -19.208515    1.943256    -11.677763    24.197601    -12.642622    2.216692    -12.172733    36.430267    0.000000    0.000000    0.000000    -11.639935    -10.926485    -0.864730    7.830284    39.173080    -1.984006    1.406281    -23.461550    -11.427449    0.000000    0.000000    0.000000    
17.874863    154.827637    -43.213898    -0.362918    -0.356146    -54.227310    1.739193    -0.057786    -1.141672    -0.048014    2.524104    -0.380979    16.273348    -1.140747    14.375752    -10.068675    9.301557    11.767316    12.036984    -0.518009    -19.091190    -10.538982    -17.700762    -40.531631    7.591683    -38.717117    -27.790741    -25.220818    -27.928928    -46.565247    -8.333348    3.261606    -1.856680    35.066162    6.929874    77.783096    7.180330    -2.714181    106.325745    3.637291    -11.589622    20.686787    23.062792    -19.057121    2.642910    -11.975711    23.889679    -11.415417    2.408938    -11.846342    36.275066    0.000000    0.000000    0.000000    -11.681567    -10.858865    -0.957211    7.810220    39.149555    -1.984427    1.426415    -23.508183    -11.440996    0.000000    0.000000    0.000000    
17.865911    154.826538    -43.158504    -0.356307    -0.369359    -54.099468    1.733687    -0.091708    -1.210351    -0.036906    2.521446    -0.404378    16.252136    -1.133269    14.350158    -10.094815    9.324901    11.745637    12.013540    -0.510366    -19.126585    -10.544750    -17.689617    -40.547974    7.609126    -38.702297    -27.775366    -25.231079    -27.904179    -46.569160    -8.339033    3.244977    -1.900118    35.066540    6.924963    77.750465    7.197875    -2.677628    106.314041    3.658252    -11.570736    20.697874    23.169884    -18.942032    3.338140    -12.092094    23.713943    -10.779491    2.450950    -11.660511    36.528854    0.000000    0.000000    0.000000    -11.712776    -10.790537    -1.077466    7.756237    39.133457    -1.958229    1.459673    -23.535519    -11.431218    0.000000    0.000000    0.000000    
17.865559    154.825729    -43.096539    -0.348278    -0.387135    -53.976448    1.734174    -0.116610    -1.266443    -0.051135    2.517681    -0.422808    16.265633    -1.148603    14.327637    -10.128884    9.369880    11.719687    12.030476    -0.498988    -19.159355    -10.583370    -17.703701    -40.589767    7.593718    -38.695869    -27.780481    -25.225122    -27.903702    -46.563850    -8.320751    3.240528    -1.956788    35.069935    6.904188    77.724739    7.221727    -2.629544    106.309608    3.629401    -11.559582    20.698618    23.259653    -18.836399    4.007540    -12.174687    23.575638    -10.379737    2.589453    -11.416569    36.725147    0.000000    0.000000    0.000000    -11.745475    -10.724033    -1.194648    7.688623    39.118698    -1.932791    1.492575    -23.566744    -11.432548    0.000000    0.000000    0.000000    
17.867754    154.818176    -43.028851    -0.335603    -0.407013    -53.847034    1.729817    -0.145251    -1.325376    -0.056871    2.517131    -0.442579    16.284151    -1.151501    14.309231    -10.182576    9.392491    11.695890    12.034373    -0.492526    -19.198378    -10.590595    -17.679859    -40.609333    7.596680    -38.702850    -27.782415    -25.220451    -27.914616    -46.555664    -8.302445    3.223111    -1.998093    35.061939    6.891309    77.682343    7.240281    -2.593995    106.312248    3.630542    -11.549067    20.709576    23.337086    -18.740515    4.506351    -12.331120    23.403929    -9.761030    2.661927    -11.197116    36.833286    0.000000    0.000000    0.000000    -11.788980    -10.660329    -1.276462    7.659651    39.108311    -1.923959    1.526551    -23.609837    -11.469620    0.000000    0.000000    0.000000    
17.873186    154.806900    -42.961483    -0.321764    -0.424939    -53.731148    1.715387    -0.169071    -1.364925    -0.043818    2.509954    -0.456112    16.291182    -1.169891    14.283929    -10.214448    9.434516    11.667541    12.038115    -0.484413    -19.246969    -10.596664    -17.641045    -40.627239    7.612403    -38.712372    -27.784451    -25.226377    -27.918558    -46.559414    -8.294828    3.208830    -2.045160    35.074844    6.871128    77.638023    7.262438    -2.543762    106.314934    3.612816    -11.532940    20.708490    23.399685    -18.661190    5.041117    -12.404435    23.150570    -9.325032    2.614566    -10.843857    36.951942    0.000000    0.000000    0.000000    -11.823907    -10.605510    -1.337593    7.627567    39.099464    -1.918596    1.524458    -23.654186    -11.522259    0.000000    0.000000    0.000000    
17.876783    154.801102    -42.884834    -0.318014    -0.451247    -53.608833    1.709907    -0.182228    -1.411262    -0.041510    2.507486    -0.471758    16.289824    -1.187694    14.263080    -10.231606    9.464981    11.645124    12.040299    -0.470422    -19.285810    -10.585703    -17.602879    -40.647797    7.612492    -38.726383    -27.793392    -25.212025    -27.943615    -46.542389    -8.280566    3.203046    -2.089153    35.060604    6.863558    77.607338    7.266320    -2.545645    106.321533    3.662555    -11.530806    20.742273    23.443254    -18.572643    5.482159    -12.498489    22.980238    -8.877770    2.544955    -10.615834    36.964809    0.000000    0.000000    0.000000    -11.857011    -10.533346    -1.366441    7.603080    39.088291    -1.935842    1.570996    -23.694031    -11.570013    0.000000    0.000000    0.000000    
17.885454    154.786011    -42.800377    -0.310173    -0.473813    -53.481686    1.716559    -0.206898    -1.461701    -0.051794    2.513497    -0.488365    16.287659    -1.197108    14.241917    -10.241005    9.475688    11.622393    12.050860    -0.471977    -19.314943    -10.598555    -17.565939    -40.675304    7.603021    -38.722919    -27.806746    -25.219349    -27.938198    -46.541759    -8.272489    3.204184    -2.116972    35.067951    6.841097    77.578575    7.277342    -2.530168    106.328484    3.645799    -11.534369    20.749384    23.480900    -18.507769    5.851291    -12.600543    22.820023    -8.512229    2.481247    -10.339866    36.981304    0.000000    0.000000    0.000000    -11.892945    -10.467976    -1.416129    7.564853    39.090202    -1.918328    1.586378    -23.751545    -11.631960    0.000000    0.000000    0.000000    
